<?xml version="1.0" encoding="UTF-8" standalone="no"?>
<!-- Generator: Adobe Illustrator 16.0.0, SVG Export Plug-In . SVG Version: 6.00 Build 0)  -->

<svg
   xmlns:dc="http://purl.org/dc/elements/1.1/"
   xmlns:cc="http://creativecommons.org/ns#"
   xmlns:rdf="http://www.w3.org/1999/02/22-rdf-syntax-ns#"
   xmlns:svg="http://www.w3.org/2000/svg"
   xmlns="http://www.w3.org/2000/svg"
   xmlns:sodipodi="http://sodipodi.sourceforge.net/DTD/sodipodi-0.dtd"
   xmlns:inkscape="http://www.inkscape.org/namespaces/inkscape"
   version="1.1"
   id="Capa_1"
   x="0px"
   y="0px"
   width="314.335px"
   height="314.336px"
   viewBox="0 0 314.335 314.336"
   style="enable-background:new 0 0 314.335 314.336;"
   xml:space="preserve"
   sodipodi:docname="favorite-star-svgrepo-com.svg"
   inkscape:version="0.92.2 5c3e80d, 2017-08-06"><metadata
     id="metadata41"><rdf:RDF><cc:Work
         rdf:about=""><dc:format>image/svg+xml</dc:format><dc:type
           rdf:resource="http://purl.org/dc/dcmitype/StillImage" /></cc:Work></rdf:RDF></metadata><defs
     id="defs39" /><sodipodi:namedview
     pagecolor="#ffffff"
     bordercolor="#666666"
     borderopacity="1"
     objecttolerance="10"
     gridtolerance="10"
     guidetolerance="10"
     inkscape:pageopacity="0"
     inkscape:pageshadow="2"
     inkscape:window-width="738"
     inkscape:window-height="480"
     id="namedview37"
     showgrid="false"
     inkscape:zoom="0.75078897"
     inkscape:cx="157.1675"
     inkscape:cy="157.168"
     inkscape:window-x="0"
     inkscape:window-y="0"
     inkscape:window-maximized="0"
     inkscape:current-layer="g4" /><g
     id="g4"><path
       d="M302.593,117.321h-80.698c-13.583,0-27.994-10.472-32.191-23.398l-24.944-76.744c-4.197-12.925-10.997-12.925-15.198,0   l-24.941,76.744c-4.2,12.926-18.612,23.398-32.195,23.398H11.74c-13.583,0-15.688,6.473-4.699,14.462l65.284,47.426   c10.989,7.986,16.498,24.932,12.298,37.854l-24.941,76.741c-4.2,12.922,1.309,16.922,12.298,8.93l65.291-47.427   c10.988-7.986,28.805-7.986,39.794,0l65.29,47.427c10.988,7.992,16.501,3.98,12.298-8.93l-24.938-76.741   c-4.197-12.923,1.31-29.868,12.298-37.854l65.284-47.426C318.285,123.794,316.176,117.321,302.593,117.321z"
       id="path2"
       style="fill:none;stroke:#000000;stroke-opacity:1" /></g><g
     id="g6" /><g
     id="g8" /><g
     id="g10" /><g
     id="g12" /><g
     id="g14" /><g
     id="g16" /><g
     id="g18" /><g
     id="g20" /><g
     id="g22" /><g
     id="g24" /><g
     id="g26" /><g
     id="g28" /><g
     id="g30" /><g
     id="g32" /><g
     id="g34" /></svg>